<?xml version="1.0"?><svg version="1.2" baseProfile="tiny-ps" viewBox="0 0 300 300" xmlns="http://www.w3.org/2000/svg" xmlns:xlink="http://www.w3.org/1999/xlink"><title>Caroline Semijoias</title><g><g fill="#fdfdfb" transform="matrix(.1 0 0 -.1 0 300)"><path d="M1320 2989C714 2914 207 2471 51 1880c-11-41-27-124-37-185l-17-110 6-135 6-136 21-104C152 606 614 147 1225 24l90-18h360l92 17c191 35 397 118 558 225 338 224 556 546 647 954l23 103-1 195v195l-22 102c-29 131-71 253-133 378l-50 100-67 94-67 95-96 95-95 96-94 66-93 66-101 51c-122 60-247 104-381 132l-100 21-150 4-150 4-75-10z"/></g><g fill="#ede4d2" transform="matrix(.1 0 0 -.1 0 300)"><path d="M1398 2993c7-3 16-2 19 1 4 3-2 6-13 5l-19-1 13-5zm200 0c7-3 16-2 19 1 4 3-2 6-13 5l-19-1 13-5zm-263-29c-389-57-681-211-937-491-161-178-282-419-341-681l-21-97-1-195v-195l23-104C188 618 606 198 1194 58l91-22 210-1h210l82 18c202 45 370 116 548 234l100 67 105 106 105 105 63 92c115 170 194 353 239 556l18 82v210l-1 210-22 91c-48 201-136 398-249 557l-58 81-96 95-95 96-81 58c-161 115-344 197-543 244l-105 24-175 4c-96 2-188 1-205-1zm232-137c-8-12-18-37-21-55l-8-32 16-32c9-17 14-33 12-36-8-8-36 57-36 85v28l20 33c11 17 23 32 26 32s0-10-9-23zm328-135c7-53 10-99 9-101-9-10-13 11-20 97-4 51-10 92-13 92-4 0-13-6-21-12-8-7-6-3 4 10 11 12 22 20 24 17 3-3 11-49 17-103zm-797 6c16-51 27-97 24-102l-5-9-13 49c-7 28-21 73-32 102l-20 52h9c4 0 21-42 37-92zm700-3c-23-30-46-55-51-55-4 0 13 25 39 55s49 55 51 55c3 0-15-25-39-55zm218-43c-24-50-46-88-49-85s14 46 39 95c25 50 47 88 50 85 3-2-15-45-40-95zm-663 81c-7-2-19-2-25 0l-13 5h50l-12-5zm777-53v-29l-22-15c-34-24-45-19-13 5l27 22-4 28-4 28 8-5c4-3 8-18 8-34zm-1120-80h11l-11 20c-6 11-8 20-6 20 6 0 36-55 36-64 0-3-48 12-107 34-60 21-112 38-118 38-5 0-11 5-13 11l-4 11 101-35c55-19 105-35 111-35zm1054-7c4-21 10-47 13-58l5-20-10 10c-5 6-14 33-19 62l-10 52 7-4c4-3 11-22 14-42zm181 8-40-19-14-23c-8-13-18-40-22-59l-7-35-1 33-1 33 16 30 15 31 32 13c18 8 39 14 47 14l15 1-40-19zM823 2437c-3-4-29 28-60 70-30 43-59 80-64 81l-9 4 6 9 6 10 62-83c34-46 61-86 59-91zm874 118c220-42 413-144 570-303l73-73 55-83c66-100 107-187 139-300l25-85 11-105 12-106-12-106-11-105-25-85c-32-112-71-196-139-300l-56-86-77-77-77-77-86-57c-103-68-189-108-303-141l-85-25-106-11-105-12-103 11c-482 53-862 401-952 874l-15 79v112c0 61 5 140 11 176 70 442 424 804 864 885l70 13 121 1 122 1 79-15zm673-46v-41l-34-34-34-34h-23l-24 1 30 13c17 7 38 23 48 34l19 20 5 41c7 53 13 52 13 0zM632 2406c37-40 65-76 61-79-3-3-17 8-31 26s-46 53-71 80c-25 26-41 47-36 47 6 0 40-33 77-74zm1777-25c-41-38-77-67-81-65-4 3 27 35 70 73 42 38 79 67 81 65s-30-34-70-73zm-1875-15 33-14 21-27 22-28-1-31-1-31-8 33c-10 41-36 71-77 89-18 7-33 15-33 18 0 8 8 6 44-9zm1993-120c-45-34-85-61-90-59-4 3 28 30 70 61 43 31 80 60 81 64 2 5 8 6 13 3l9-6-83-63zm-2083-45 26-24 37-7 38-8-33-1-33-1-30 16-31 15-14 34c-18 43-18 70 0 30 7-16 25-41 40-54zm2185-102-39-111 17 6 18 6-19-15c-11-8-23-15-28-15-4 0 8 45 27 100 19 54 35 104 35 110v11l-12-6c-7-4-4 1 6 9 11 9 23 16 27 16s-11-50-32-111zm-2271 25 22-15v-33l-16 22-15 22h-54l15 10c20 13 22 13 48-6zm129-48c-18-14-105-31-114-23-3 4 85 28 127 36 3 0-3-6-13-13zm-43-107c-4-7-178 79-182 90-1 4 40-13 91-38 52-25 92-49 91-52zm2306 91c0-5-5-10-11-10h-10l6 10c3 6 8 10 11 10 2 0 4-4 4-10zm38-116c-4-3-47-18-97-34l-91-28-6 9-5 9 23 1c13 0 57 13 98 28 69 25 92 30 78 15zm-2378-44v-10l-40-1c-22-1-44-3-50-4-5-1-31-3-57-4l-46-1 19-22 19-23-22 19c-13 11-23 22-23 26 0 6 100 21 183 29l17 1v-10zm-40-152c0-5-12 3-27 16-75 64-83 74-30 35 31-24 57-47 57-51zm2367-100-5-13v50l5-12c2-7 2-19 0-25zm-2480-98h39l24 17 25 17-19-22-18-21-29-6-29-7-34 12c-19 6-40 18-48 27l-13 16 32-16 32-17h38zm2577-101 21-22-25 15c-14 8-38 17-55 21l-30 5-37-13c-45-15-49-12-10 10l27 15 44-4 43-4 22-23zm-99-262c11-12-16 7-63 42-18 14-32 29-32 34 0 8 59-39 95-76zm53-58c-7-3-47-10-88-13-41-4-84-10-95-13l-20-5 10 11 11 11 87 6c48 4 87 10 87 13 0 4-6 13-12 21-7 8-3 6 10-5l23-19-13-7zm-2378 1v-9l-97-31c-53-16-98-28-100-26-3 2 33 16 79 31 46 14 90 30 98 35 20 12 20 12 20 0zm2337-176c-2-3-45 15-95 40-50 24-88 46-85 49s46-14 95-39c50-25 88-47 85-50zM395 932c-19-56-35-104-35-107s9-1 20 5 20 8 20 6c0-3-13-12-30-21-16-9-30-13-30-10s16 51 35 106c19 56 33 105 30 109-5 7 16 21 23 15 1-1-13-48-33-103zm2215 19c-14-4-41-11-60-15l-34-6 9 9c11 10 46 18 85 19h25l-25-7zm80-64 25-4-30-2-31-1-12 12c-7 7-12 16-12 22v9l18-16c9-8 28-17 42-20zm-2170 9c0-2-7-7-16-10l-15-6 6 10c6 10 25 14 25 6zm2050-66 27-19 13-30 12-29-5-19-5-18-1 27-1 26-31 31c-17 17-40 33-52 36-12 2-31 6-42 8l-20 5 38 1 39 1 28-20zM569 817c-46-38-162-117-165-114s32 32 78 65 85 58 87 56 2-6 0-7zm1876-137 25-24 43-7 42-6-43-2-44-1-34 34-34 34 1 29 1 28 9-31 9-30 25-24zM629 644c-29-27-64-59-77-72s-27-21-30-18-3 7-1 9c2 1 37 33 77 71s75 66 78 63-18-27-47-53zm1826-112c-5-6-143 143-139 150 3 4 36-27 73-70 38-42 68-78 66-80zM713 595l-31-13-18-26c-9-15-20-41-24-59l-8-32-1 28-1 28 15 29c18 35 52 60 80 60l20-1-32-14zm1600-187c-2-4-32 29-67 75-34 45-61 85-59 89s32-29 67-75c34-45 61-85 59-89zM840 475l-11-35-26-20c-14-11-33-20-42-20h-16l31 19 31 19 16 35c9 19 17 41 18 49l1 13 5-12c2-7-1-29-7-48zm1290 35c0-5-2-10-4-10-3 0-8 5-11 10l-6 10h10c6 0 11-4 11-10zM953 407l6-37-8 5c-5 2-12 26-16 51-3 26-9 54-11 63s2 3 9-14c8-16 17-47 20-68zm44-55c-49-103-46-96-51-91-2 2 14 39 35 83 21 43 39 85 39 93v14l10-6 9-6-42-87zm1193 14c0 3-7 18-15 34-9 17-13 30-10 30 5 0 45-75 45-84 0-3-44 10-97 29-54 19-105 35-114 35h-17l-5 15-6 14 109-39c61-22 110-37 110-34zm-1073-39c1-84-2-78-16 29l-7 62 10-4 11-4 2-83zm809-13c16-52 27-97 24-99-3-1-19 42-36 96-18 55-29 99-25 99 3 0 20-43 37-96zM899 359l-21-21 5-24 4-23-8 5c-12 7-11 41 1 65l11 19h29l-21-21zm361 8c0-2-10-12-21-23l-22-19 14 23c12 19 29 30 29 19zm195-57 15-29v-71l-31-32-31-33 21 29c11 15 23 43 27 60l6 33-16 36c-18 44-13 49 9 7zm-235 7c0-2-10-12-22-23l-23-19 19 23c18 21 26 27 26 19zm835-27c9-16 13-30 11-30-3 0-12 14-21 30-9 17-13 30-11 30 3 0 12-13 21-30zm-928-82-5-13v50l5-12c2-7 2-19 0-25zm278 2301c-202-18-392-97-552-230l-73-59-59-73c-134-162-210-345-231-555l-8-92 8-93c23-232 114-435 270-601 145-154 317-253 525-302l80-19 140 1h140l88 22c49 12 122 36 163 53l76 32 87 57 88 58 73 72 72 73 58 88 57 87 32 76c17 41 41 114 53 163l22 88v140l1 140-13 55c-87 361-298 617-619 750l-75 31-86 19c-108 22-213 29-317 19zm370-244 67-75-111-137c-61-75-109-138-107-140s26 8 53 22c28 13 74 30 103 36l54 11 62-5 63-5 65-30 65-31 51-47 50-47 33-66 32-66v-210l-34-70-33-70-336-338-337-337h-31l-331 333-331 332-31 62-31 62-12 70-12 69 11 59c6 33 21 81 34 109l23 49 53 53 53 53 66 31 67 31 72 5 72 4 59-17c32-9 74-25 93-36 18-11 36-18 38-15 3 3-45 67-107 142l-112 136 73 74 73 74h404l67-75zm-426 3 18-43h13c7 0 28 19 48 43l35 42h-132l18-42zm227-2c22-24 42-45 46-45 8-1 38 64 38 80v9h-123l39-44zm-315-16-42-50h131v7c0 14-35 93-41 93-3 0-25-22-48-50zm189 5c-24-24-41-47-38-50s45-5 93-3l87 3-42 48c-23 26-45 47-49 47s-27-20-51-45zm220-2c-8-21-16-41-18-45l-4-8h133l-38 45c-21 24-43 44-48 45h-11l-14-37zm-460-78c0-8 238-303 251-310l9-6-1 8c0 4-24 76-52 158l-52 150-77 3c-43 2-78 0-78-3zm180-1c0-17 103-324 109-324 5 0 79 215 106 308l6 22h-110c-61 0-111-3-111-6zm245-6c-17-46-93-293-91-295 5-5 236 285 236 296v11h-141l-4-12zm-602-279-53-20-54-50-54-49-21-45c-12-25-26-68-32-96l-11-50 11-62 11-61 25-51 24-51 306-304c168-168 310-305 315-305s144 134 309 297l300 297 25 43c14 24 33 72 42 107l16 64-7 56-6 56-25 52-25 52-54 50-55 50-58 21-57 22-80-4-80-5-56-26-57-27-44-43c-24-23-54-55-66-72l-23-30-16 25c-9 14-38 46-63 71l-47 46-58 28-58 29-86 3-86 3-52-21zm1407 777c0-2 8-10 18-17l17-14-14 18c-13 16-21 21-21 13zm100-91c13-14 26-25 28-25 3 0-5 11-18 25s-26 25-28 25c-3 0 5-11 18-25zM3 1585v-50l4 28c2 15 2 37 0 50l-4 22v-50zm-1-165v-35l5 18c2 9 2 25 0 35l-5 17v-35zm2990-30v-25l5 13c2 6 2 18 0 25l-5 12v-25zm-11-106 1-19 5 13c3 7 2 16-1 19-3 4-6-2-5-13zm-382-801-14-18 18 14c16 13 21 21 13 21-2 0-10-8-17-17zM425 450c10-11 20-20 23-20s-3 9-13 20-20 20-23 20 3-9 13-20zM1368 3c7-3 16-2 19 1 4 3-2 6-13 5l-19-1 13-5z"/></g><g fill="#dcc79d" transform="matrix(.1 0 0 -.1 0 300)"><path d="M1340 2960c-246-30-460-111-670-251l-95-64-110-110-110-110-64-94c-107-161-171-304-215-481l-26-105-11-115-11-115 7-100c18-272 106-525 259-749l61-90 80-84c208-220 475-369 778-434l102-21 180-1 180-1 90 18c201 41 391 119 557 229l93 62 121 120 120 121 63 94c110 167 187 353 228 556l17 90v360l-22 102c-66 305-213 569-434 778l-84 80-90 61c-169 116-351 193-551 233l-102 21-133 4-133 5-75-9zm291-100-33-8-21-20-20-20-4-49-5-48 22-27 21-28h83l23 22 24 23-7-18c-9-25-36-37-84-37h-42l-29 29-29 29v89l21 27c25 31 52 45 89 44h25l-34-8zm73-13c11-8 17-18 15-23l-4-9-22 23c-24 24-17 30 11 9zm-555-31c-2-2-18-7-34-11l-30-6 30 14c27 13 45 14 34 3zm745-73c4-38 10-87 13-110l6-43h-33v81l-22 10-23 10 23-5 22-4v26c0 15-3 37-6 49l-6 23-29-37-30-36 13-9 13-8h-43l-14-30-13-30h-12c-7 0-13 3-13 6 0 10 133 174 140 174 4 0 10-30 14-67zm-814 41c0-9 12-52 26-95l26-79h12c6 0 23 7 39 14l27 15v-9c0-7-91-43-95-37-1 1-14 41-29 90-15 48-29 94-32 102l-6 15h32v-16zm-41-212c-3-1-50 13-104 33-54 19-100 33-102 31-6-6 55-123 68-132l11-6-12-8-12-8-47 92c-25 50-43 92-40 94 3 1 50-13 105-32 54-19 100-33 102-31 6 5-60 130-70 134l-10 3 12 8 12 8 47-92c25-50 43-92 40-94zm1052 166 39-22 6-19 6-19-13-25-13-24-27-6-26-5 9-41c5-23 11-51 15-62l6-20-16 14-16 13-6 37c-4 20-8 46-11 59l-4 22h60l10 25 9 25-5 15c-6 15-43 40-49 33-1-2-22-41-45-88-49-99-46-94-60-85l-11 7 13 16c17 20 78 147 78 162 0 14 7 13 51-12zm-686 2-6-10-42 1-42 1 30 8c17 4 38 8 48 9l18 1-6-10zm-235-20c0-5-5-10-11-10h-10l6 10c3 6 8 10 11 10 2 0 4-4 4-10zm-398-200c22-30 47-60 55-66l14-12-14-5-14-5-57 79-57 79h-12l-12 1 20 15 19 14 9-22c4-12 26-47 49-78zm1549 83 29-17 16-34 15-33-6-29-6-29-29-31-28-30h-94l-28 29-29 28-7 27-6 26 12 30c7 17 26 42 42 55l30 25h60l29-17zm-691-33c170-22 322-79 472-175l73-48 86-86 86-86 57-86c88-136 134-257 162-421l17-101-6-121-6-121-19-75c-31-117-77-227-133-320l-52-85-111-110-111-110-83-49-82-49-92-34c-51-19-124-42-163-51l-70-17-160 1-160 1-100 26-100 27-92 44c-113 55-188 105-274 185-205 188-327 450-345 739l-6 97 16 104 16 104 33 98 34 97 44 77c24 43 73 114 109 158l66 81 81 66c44 36 115 85 158 109l77 44 98 34 98 34 89 13c107 17 193 19 293 6zM630 2414l65-74 33 35 32 35v-28l-39-31-39-31-4 9c-1 6-33 41-70 79l-68 69 7 7c11 11 16 6 83-70zm1813-7c-27-25-61-55-76-67l-27-21 10-20c6-10 23-25 38-33l27-15-16-1h-15l-33 34-33 34 79 75 78 76 8-9 9-8-49-45zm-1893-42c16-8 36-25 44-37l16-22v-67l-14-27-14-28-24-11c-12-6-31-14-41-17l-18-6-33 14-33 14-21 27-22 28v29c0 16 7 42 15 58l15 29 28 15c35 19 66 20 102 1zm2052-72c-18-7-135-93-149-110l-11-14-7 11c-9 14-13 10 82 80l78 58 10-10 10-10-13-5zm33-188c-20-54-34-100-31-102 6-6 123 54 132 68l7 11 7-12 8-12-92-47c-50-25-92-44-94-41-1 3 13 52 32 108s33 102 30 102c-12 0-123-61-130-71l-6-11-8 12-7 12 91 47c50 25 92 44 94 40 1-3-14-50-33-104zm-2265 15c11-11 20-27 20-36v-16l43 7c23 4 51 12 62 17l20 10-20-20-20-21-52-9-52-9-3 31-3 31-29 10-28 10-19-24c-10-13-19-26-19-30s41-27 90-51c88-43 100-53 81-64l-9-6-4 9c-4 12-143 81-163 81-8 0-15 2-15 5 0 8 31 68 42 83l10 12h48l20-20zm2441-215c9-25 14-45 10-45s-13 18-20 39l-11 39-90-30-90-30-1-17v-16l-10 24c-5 13-8 25-7 26 10 7 194 61 198 58 2-2 12-24 21-48zm-2395-10-6-16-10 6-10 6-30-6-30-7-1-16-1-17-5 18-4 17h-89v-7c0-5 18-20 39-36l39-27 6 17 5 18-2-23-2-23 30-17c17-9 32-18 33-19 2-1-1-10-7-20l-10-18-1 12c0 6-39 42-86 80l-87 68 24 4c69 10 204 26 208 24 2-1 1-9-3-18zm2307-55c-6-7-23 23-23 40v15l13-25c8-14 12-27 10-30zm-88-38c-8-8-25 10-25 26v16l14-20c8-10 13-21 11-22zM171 1694l-21-27v-24c0-73 87-116 159-78 32 16 41 33 41 78v31l-22 23-21 23h11c6 0 18-10 26-22l16-22v-33c0-18-5-44-12-58l-12-26-27-15-28-14h-73l-35 35-36 36 6 44c4 45 21 75 39 75h9l-20-26zm2578-77 1-18-10 6-10 6 1 42 1 42 8-30c4-16 8-38 9-48zm81-164 31-28 4-40 5-40-9 35-9 35-27 22-26 23h-86l-27-21-26-20v-88l26-20 27-21h-12c-6 0-20 9-31 20l-20 20v92l29 29 29 29h92l30-27zM278 1340l1-25-9 20c-5 11-8 34-8 50v30l8-25c4-14 8-36 8-50zm2572-29-11-21h-28l22 23c26 27 33 27 17-2zm-124-108c46-36 84-69 84-73s-33-11-73-15c-41-3-90-10-110-15l-37-8v34l34 1c46 1 54 8 62 49l6 35-23 17c-13 9-27 16-31 14-5-1-8 5-8 13s3 15 6 15 44-30 90-67zm-2335-9c13-37 7-39-13-3l-17 29h10c5 0 14-12 20-26zm-91-39c0-8-2-15-4-15s-6 7-10 15l-5 15h9c6 0 10-7 10-15zm-86-73c2-2 22 2 45 8l41 11v34l9-14 9-13 38 12c22 7 42 17 45 22l6 10 6-21 5-21h-17c-10 0-56-13-103-29l-85-29-15 49-16 48 7 6 6 6 8-37c4-21 9-40 11-42zm2466-82c41-19 76-35 78-36s-6-20-17-42l-21-41-21-6-21-7-27 19-26 20-3 20-3 21-55-13-54-12v8c0 8 46 24 97 33l32 5 3-27 3-26 28-16 28-15 20 24c10 13 19 26 19 30s-40 27-90 51c-88 43-97 50-83 63l6 7 16-13c9-7 50-28 91-47zm-2240 48c0-2-16-47-35-101s-35-102-35-108v-9l71 36c39 19 74 33 77 30s3-7 1-8c-18-11-189-96-189-94s18 53 40 115l40 112-77-40c-42-22-79-38-82-34-4 3-1 8 4 10 6 2 46 23 90 47 74 40 95 50 95 44zm2104-202 33-14 21-27 22-28v-29c0-16-7-43-16-59l-15-31-36-14-35-15-29 6-29 7-30 30-30 30v69l16 30 15 31 32 13c40 18 41 18 81 1zM573 824c3-4-29-31-71-61-42-31-80-60-83-66l-7-10-11 7c-15 10-14 26 2 27 6 0 44 25 82 54 73 56 78 59 88 49zm82-101 32-37-46-36c-25-20-60-53-77-72l-32-36-10 10-10 10 74 65c41 35 74 68 74 72 0 10-41 47-60 54l-15 5 19 1 19 1 32-37zm1805-197-8-8-34 38c-18 20-49 55-68 77l-36 39-32-36-32-37v29l37 30 37 29 72-76 72-76-8-9zM774 606l33-14 21-27 22-28v-62l-19-29c-47-71-137-72-185-4l-16 22v67l14 27 14 28 24 11c19 10 40 18 56 22 1 1 17-5 36-13zm1436-37c0-12 85-127 107-146l14-11-11-7-12-7-8 8c-32 36-118 163-113 168 10 10 23 7 23-5zm1-227c-5-1-52 13-106 32-55 20-100 34-103 32-5-5 47-107 65-127l14-17-16-5-15-6v13c0 7-20 49-44 94s-40 82-36 82 53-16 109-35c55-19 103-35 105-35 8 0-67 134-77 139l-9 3 12 8 12 7 48-91c27-50 45-92 41-94zM950 450c0-10 3-32 6-49l7-31h-25c-13 0-29-5-36-12l-12-12v-53l25-11 26-12 42 89c23 50 46 89 50 88 12-4 11-8-37-105l-43-89-36 19-36 18-12 21-11 21 19 27 20 26 22 3 21 3-6 27c-3 15-10 43-15 62l-8 35 19-24c11-13 20-31 20-41zm170-70v-40l24-10c13-4 32-10 42-12l18-3 21 31 21 30 12-4 12-4-16-15c-8-9-40-47-71-84-30-38-59-67-63-64-4 2-10 39-14 81s-10 90-13 106l-5 28h32v-40zm786 32c-3-5 8-50 24-102 17-51 29-94 27-95-1-1-23-9-49-18l-48-16v10c0 5 6 9 14 9s26 4 39 9l25 10-13 43-13 43-9-2c-4-1-22-4-38-7l-30-6 35 14 35 13-3 18c-7 34-22 65-32 65-16 0-54-21-62-34l-8-11v34l48 15c56 17 65 19 58 8zm-477-68 23-17 14-34 15-34-11-40-11-40-32-19-32-20h-28c-15 0-41 7-57 15l-30 16v28l25-24 24-25h33l33 1 16 12c9 7 21 22 27 34l12 22v82l-25 24-24 25h-71l-20-20c-11-11-20-16-20-11 0 6 10 17 22 25l22 16h72l23-16zm251-74c-14-4-36-8-50-9l-25-1 15 10c8 5 31 9 50 9l35-1-25-8zm553 2321-32-20-16-30c-8-17-15-42-15-56v-26l25-24 24-25h25c56 0 103 43 113 104l5 33-23 26-24 26-25 6-25 5-32-19zm-910-96c-198-36-365-121-512-260-133-127-214-252-270-420l-30-90-12-84-12-84 6-111 6-111 21-85 21-85 48-100 48-100 62-82 62-82 62-54c122-107 247-176 407-224l85-25 138-5 138-6 76 13c416 67 748 391 829 810l15 75v230l-11 55c-35 183-106 334-227 483l-56 68-81 65-80 64-79 41c-96 50-194 84-300 104l-79 15-102-1-101-1-72-13zm445-218c39-40 72-78 72-85 0-8-47-70-104-140-58-70-103-128-102-130 2-1 30 10 62 25l59 28h210l68-33 67-33 50-49 51-50 25-54 25-55 9-58 10-57-11-65-10-65-31-66-31-65-337-339-337-339-11 4c-7 2-163 155-347 339l-336 335-37 74-37 75v211l31 65 31 65 49 48 49 48 65 32 64 32 88 3 87 4 53-17c29-10 68-27 87-38l35-21-7 12c-4 6-55 69-112 139-58 70-105 131-105 134s32 40 71 82l71 77h394l72-73zm-422 11c3-13 12-33 18-46l12-22 44 45 44 45h-125l7-22zm204 14c0-4 17-25 39-46l38-38 11 29c5 15 13 36 17 46l7 17h-112v-8zm-93-46c-20-25-37-47-37-50s36-6 81-6h81l-4 9c-3 9-76 91-81 91-1 0-19-20-40-44zm-190-4c-20-21-37-41-37-45 0-8 104-10 112-1 7 6-24 84-32 84-3 0-23-17-43-38zm409 3c-9-21-16-41-16-46v-9h110v8c0 4-18 25-39 46l-40 39-15-38zm-449-98c12-21 228-286 230-283 1 1-19 68-45 149l-47 146-73 1h-73l8-13zm216-142c28-85 54-155 58-155 5 0 99 286 99 303v7h-208l51-155zm153 18c-25-75-44-138-42-140 2-3 154 180 219 265l9 12h-140l-46-137zm-541-140c-27-10-71-33-97-51l-47-33-31-45c-18-24-38-65-47-90l-15-46 4-78 5-78 28-58 28-59 308-310 309-310 305 305 306 305 32 65 32 65 3 80 4 80-22 58-22 57-46 48-47 48-60 30-60 29h-85l-85-1-67-33-68-34-42-46c-24-25-51-57-60-71l-18-25-12 20c-6 11-34 44-61 73l-50 52-62 31-62 30-74 5-74 5-50-18zm-629 436c-32-38-32-56-3-100l23-34 42-15 42-14 27 20 28 21 9 26 9 25-13 31-12 31-33 20-32 20h-61l-26-31zm2266-1164-10-35 31 1c18 0 40 4 50 7l18 8-28 20c-15 11-33 23-39 27l-11 6-11-34zm-253-354-29-29v-54l39-39 39-39h64l30 30 30 31-6 31c-10 51-66 98-116 98h-22l-29-29zM691 575l-30-26-11-33-11-33 11-27 10-27 31-13 31-13 24 5 24 4 30 35 30 34v70l-25 24-24 25h-59l-31-25zm435-296c4-24 8-45 9-47 1-1 15 14 30 33 15 20 25 38 23 41-3 2-19 7-37 10l-32 7 7-44z"/></g><g fill="#ceab6b" transform="matrix(.1 0 0 -.1 0 300)"><path d="m1245 2941-100-18-109-37-110-37-106-55-107-55-84-64-84-63-100-104-100-103-56-85c-79-119-135-235-179-370l-38-115-16-101-16-101v-271l19-114 20-114 31-94 32-95 59-116 60-115 66-88c36-49 105-126 152-173l86-84 90-64 90-64 100-50c171-86 336-131 540-150l110-11 110 10c141 12 240 31 357 70 372 124 672 384 851 740 83 166 130 338 147 543l9 109-10 110c-17 203-64 370-150 543l-50 100-64 90-64 90-95 96-94 95-91 65c-112 79-265 157-391 199l-94 31-114 20-114 19-146-1-147-1-100-17zm450-83 25-11v-50l-20 25-20 26-24 4-24 5-31-13-30-13-11-41-11-42 10-30c6-17 19-37 28-44l18-13 31-1h30l16 13c8 6 20 21 26 32l11 20 1-21v-21l-18-16c-10-9-32-19-48-23l-30-6-38 16-37 15-15 37-16 37 7 35 6 35 29 29 28 28h41c22 0 52-5 66-12zm-537-54 4-19-12 12-12 11-29-10-30-10 6-19c3-10 8-28 11-39l5-20h12c7 0 23 7 35 16l22 15v-10c0-5 2-16 5-24l6-14-29 5-30 4-6-10-6-10 12-33c6-19 12-35 13-37 1-1 15 3 32 8l30 11 12 22 11 22-3-30-2-29-44-13c-24-7-52-15-62-18l-17-6 5 20 5 20-22 73-21 73-16 12-16 12 14 6c106 39 112 39 117 9zm736-26c3-24 8-72 12-108l7-65 11-14 11-14-25 6c-14 4-28 7-32 7h-6l5 39 5 39-38 11-38 10-17-15c-10-9-19-24-21-34l-3-18-23 9-24 9 29 24c15 14 51 54 78 90 28 36 53 65 56 66 4 0 9-19 13-42zm-927-20-4-13 43-86c24-47 44-88 44-91 0-4-46 9-102 28-56 18-103 32-105 30-7-7 56-124 68-128l11-4-27-12-27-12 5 12 4 13-44 89c-24 48-43 90-41 91 2 2 47-12 102-31 54-19 101-34 106-34 4 0-8 29-27 65l-34 65h-12l-12 1 25 14c31 18 33 18 27 3zm1144-29 29-20v-52l-17-19-16-18h-39l7-42c4-24 13-53 21-65l14-23h-8c-5 0-17 9-26 19l-18 20-9 43c-5 24-12 51-15 61l-6 18 26-7 26-6 15 12 15 12v22c0 24-17 46-35 46h-11l-37-75c-20-42-37-82-37-90 0-19-11-19-36 0l-19 14 13 1h13l40 86 39 85-5 10-6 9 27-10c15-6 40-20 55-31zm-701 12v-8l-47-6c-27-3-50-3-53-1-10 10 27 24 63 24h37v-9zm-690-131c0-6 23-42 51-80l51-70h31l-18-20c-20-22-35-26-35-9 0 12-79 126-104 152l-15 14 12 12c14 14 27 14 27 1zm1626-24 34-34v-84l-40-40-40-41-43 6-42 6-32 35-33 36v30c0 38 23 84 52 104l22 16h88l34-34zm-574-39 97-26 85-40c47-22 118-61 158-88l72-48 76-75c164-162 269-365 310-596l13-70-6-150-5-149-21-79c-43-157-116-295-222-423l-59-73-72-59c-127-105-270-179-427-222l-76-21-155-5-155-5-83 17c-351 71-636 294-784 613l-40 87-25 95-25 95-5 121-6 122 12 83 12 84 35 105 35 105 46 80c166 288 433 480 753 540l75 14 145-3 145-4 97-25zm-1197-49-5-13 64-70 64-70 21 19 21 19v31l1 31 14-25 14-25-42-42c-42-44-57-52-57-32 0 6-25 40-56 75l-56 64h-31l23 25c26 28 31 31 25 13zm1916-45 24-26-16 6-17 5-68-63-69-63 19-20 18-21 31-3 32-3-28-12-28-13-44 48-44 47 18 5c9 3 45 29 79 59l62 54v13c0 19 3 18 31-13zM574 2349l35-31 7-33 6-33-15-28c-8-16-24-37-35-47l-20-18-35-6-36-5-34 21-35 21-17 36-16 35 11 34 11 34 30 26 31 25h77l35-31zm2046-51c0-4-5-8-12-8-6 0-44-25-85-55l-74-56 6-9 6-10h-8c-8 0-37 40-31 44 2 1 15 8 29 15 15 7 52 33 83 57l57 45-7 12c-4 7 2 3 14-7 12-11 22-23 22-28zm22-187-38-109 68 34 69 35-6 9-6 10h9c5 0 14-12 21-26l11-26-12 5-13 4-88-45c-48-24-90-43-92-40-3 2 11 48 30 102 19 53 35 101 35 105v9l-57-30c-32-17-63-37-69-44l-11-14-11 25-11 24 12-4 12-4 80 43c44 24 85 44 92 45l12 1-37-109zm-2270 12c10-9 18-24 18-34v-18l38 6c20 3 50 13 67 21l29 15-16-24-15-24-24-7c-13-3-43-10-66-16l-42-9 6 28 5 27-25 16-24 16-16-6c-15-5-33-41-25-49 1-1 36-19 77-39l73-37 14 5 14 5v-7c-1-4-7-18-15-32l-14-25-1 12v13l-81 41-81 40-14-5c-18-7-18-3 7 47 25 48 35 57 68 57h24l19-17zm2439-205c19-56 17-68-9-68h-16l11 11 11 11-10 29-10 30-19-6c-10-3-28-8-40-11l-21-6 7-26c4-15 12-30 18-34l12-8h-12c-6 0-18-3-26-6l-14-5 4 23c2 13 0 29-5 36l-8 12-35-11c-19-7-35-13-37-14-1-1 3-15 8-32l11-30 22-12 22-11-29 3-29 2-12 35c-7 19-15 49-19 65l-7 30 11-11 11-11 87 27 86 27 4 12c6 18 13 7 33-51zm-2389-18-9-24h-38l-39-1-9-35-9-34 22-18 22-18 9 6 9 5v-18c0-10-5-25-10-33l-10-15v12c0 7-39 44-86 84l-85 72 12 8c7 4 54 11 104 14 51 4 98 11 106 16 18 11 21 6 11-21zm-212-180c0-5-7-10-15-10h-15l-17-34-16-35 12-29 12-29 25-12c14-6 43-11 65-11h40l24 25 25 24v61l-18 18c-10 9-27 23-38 30l-19 12 25-6c14-3 34-15 45-25l20-19v-79l-21-28-21-28-36-12-35-12-36 10-35 10-21 26-20 26v97l20 20c21 21 50 27 50 10zm2534-36c3-9 6-31 6-50v-34h-20v19c0 10-3 33-6 50l-6 31h10c5 0 13-7 16-16zm60-208 33-14 17-23 16-23v-38c0-20-5-49-12-63l-11-25h-50l25 20 26 20 4 24 5 24-13 30-12 29-32 12c-18 6-43 11-56 11h-22l-31-26-31-26v-64l13-16c6-8 21-20 32-26l20-11-21-1h-21l-16 18c-8 9-18 29-22 44l-7 27 12 36 12 37 32 19c37 23 65 24 110 5zM280 1358v-52l-9 10c-5 5-11 28-14 52l-5 42h28v-52zm2469-168c39-30 71-58 71-61 0-4-46-12-102-19-57-7-112-17-122-22l-19-10 6 17c4 9 7 23 7 30v13l39-5 39-5 12 36 12 37-12 14c-6 8-20 17-31 20l-19 6v18c0 10 3 21 6 24l7 6 17-22c10-12 50-47 89-77zm-2344-22c17-59 19-71 7-64-5 3-47-6-93-20l-84-26-11-14-11-14-16 60c-21 72-20 70-2 70h14l-5-13c-3-8 0-25 5-40l10-25 38 11c49 14 47 11 30 46l-15 30 15 5c21 8 25 7 19-3-4-5-2-21 3-34l10-25 35 10 36 11v14c0 24-20 54-43 63l-22 9h32l32 1 16-52zm2262-159 84-39 10 5c5 4 9 3 9 0 0-11-32-70-48-87l-15-18h-21c-12 0-32 7-44 16l-22 15v40l-37-7c-21-3-50-12-65-19l-28-13v7c0 4 9 16 20 26l19 17 43 9c24 4 51 11 61 15l18 7-7-27-6-26 12-15 12-15h22c24 0 46 17 46 36v12l-75 36c-42 20-82 36-90 36-18 0-18 5-3 33l11 22 5-13 4-13 85-40zM406 937c-19-54-33-97-30-97 2 0 31 14 64 30l60 30v18l1 17 14-25c8-14 14-29 15-33v-8l-10 6-10 6-87-45c-48-25-89-43-91-41-4 4 23 86 66 203l5 13-67-33-66-32v-16l-1-15-14 19c-20 26-19 36 3 36 9 1 53 20 97 43l80 42 3-11c2-6-13-54-32-107zm2162-97 33-20 15-36 15-36-11-34-11-33-30-26-31-25h-73l-37 30-37 31-7 33-6 34 16 30c9 17 28 40 42 51l27 21h62l33-20zM574 801c-11-2-49-26-86-53l-68-50v-33l-20 25c-11 14-20 29-20 33v8l10-6 10-6 75 53 75 53v15l1 15 20-25 21-25-18-4zm85-76c40-43 52-63 31-50l-11 7-67-63-67-63 1-14 2-13-11 4c-6 2-17 14-26 27l-16 24 13-8 12-7 65 62c36 34 65 68 65 74 0 7-11 20-24 29l-25 16-18-6-18-6 19 16c11 9 23 16 27 16 3 0 25-20 48-45zm1681-36c0-6 26-39 58-75l57-64h28l-18-20-18-20-17 27c-10 16-41 50-69 77l-50 50-20-18-20-18-3-32-4-31-8 28-9 29 39 39c39 40 54 48 54 28zM790 605c16-8 36-25 44-37l16-22v-88l-34-34-34-34h-38l-39 1-23 13c-13 7-32 26-43 42l-19 29v52l23 34c38 57 91 73 147 44zm1420-27c0-17 109-158 122-158h12l-20-15c-26-19-27-19-41 13-7 15-33 53-58 85l-46 58-12-7c-7-4-3 2 7 14 21 24 36 28 36 10zm-73-50-5-13 49-92c28-51 48-93 46-93s-50 16-107 35-105 33-107 31c-6-6 43-101 61-119l15-14-24-11-24-11 5 13 5 12-45 85c-25 46-46 87-46 91s46-9 102-28 106-34 110-34c10 0-50 111-68 126l-14 11 23 11c29 14 29 14 24 0zM920 510l19-10 10-38c5-20 11-51 15-68l5-32-31 2-32 1-10-28-11-29 20-14c10-8 22-14 27-14 4 0 26 36 48 80l41 81-7 11-7 11 9-4c5-3 32-13 60-24l52-19-5-37-5-37 38-11 38-10 18 16c10 9 18 22 18 30v13h18c9 0 24-5 32-10l15-10h-34l-67-85c-37-47-70-85-74-85s-13 48-19 107l-12 108-11 12c-6 7-16 13-22 13h-12l-39-81c-22-45-39-88-37-96l3-14-50 26-51 25-6 25-6 25 16 25 16 25h42l-7 48-7 47-15 18c-18 19-11 22 17 7zm993-99-5-20 27-80 27-81h22l-9-9c-8-6-100-41-111-41-1 0-4 6-7 13l-5 14h29c16 0 35 5 40 10l11 11-12 36-12 36h-13c-7 0-20-7-29-15-19-20-26-19-26 3v18l21 1c12 1 26 6 30 10l9 9-11 36-10 37-27-10c-15-5-35-20-44-32l-18-22v53l58 20c72 26 71 26 65 3zm-497-57 35-17 16-30 15-30-5-41-6-41-31-27-30-28h-40c-21 0-51 5-65 12l-25 11v50l20-26 20-25 24-6 25-6 25 10 25 9 16 30c18 36 19 71 4 105l-12 25-28 11-29 12-25-6-26-7-20-32-20-32 3 30 3 30 35 17c43 22 53 22 96 2zm279-85-6-9h-93l10 9c9 10 73 19 87 13 4-2 5-8 2-13zm145 2470c-25-34-25-35 10-44l26-6-4 40c-2 23-6 41-7 41-2 0-13-14-25-31zm372-170-30-31-5-26c-6-31 5-63 28-82l17-14h67l22 20c12 10 28 33 35 51l14 31-11 31-11 31-18 10c-10 6-32 10-48 10h-30l-30-31zm-837-70c-155-21-298-75-435-163l-72-47-79-78-78-79-47-72c-96-149-145-287-165-465l-11-102 12-104 12-103 25-81c149-479 612-772 1110-704l78 10 90 30c307 102 542 337 644 644l30 90 10 78c28 205-2 398-90 583l-38 81-59 79c-187 251-458 394-770 408l-97 5-70-10zm402-225c37-42 68-80 68-85s-46-65-102-134c-57-69-100-125-98-125 3 0 22 8 43 19 20 10 64 24 96 31l59 12 64-7 64-7 69-34 68-35 55-59 55-59 22-58 22-58 5-65 5-65-16-65c-9-35-28-85-43-110l-26-45-336-338-336-337h-31l-336 338-337 337-30 63-30 64-12 68-12 68 12 64 13 63 31 58 30 58 49 44c27 24 73 56 102 70l52 26 62 11 62 11 64-11c36-7 86-21 113-33l47-20-15 18c-95 113-189 234-189 245 0 7 33 45 72 85l72 73h405l68-76zm-422 0c8-20 15-38 15-40 0-15 23 2 50 36l32 40h-112l15-36zm230-5 40-40 12 28c7 15 12 34 13 41v12h-104l39-41zm-313-19-33-40h50c28 0 51 2 51 4 0 6-30 76-33 76-1 0-17-18-35-40zm183 0-39-40h154v8c0 9-63 72-71 72-3 0-23-18-44-40zm221-1-14-34 24-3c13-2 36-2 50 0l25 3-35 34-36 34-14-34zm-446-85c0-8 214-274 217-270 2 1-18 64-43 139l-46 137h-64c-35 0-64-3-64-6zm170-1c0-15 95-293 100-293 3 0 25 62 49 138 24 75 46 143 48 150l5 12h-202v-7zm202-121c-23-70-42-131-42-136 0-4 47 51 105 123s105 133 105 136-28 5-63 5h-63l-42-128zm-499-142c-24-5-63-18-87-29l-45-19-45-42-46-42-27-57-28-56 1-80v-80l23-60 24-60 313-315 314-315 305 305 306 305 32 65 32 65v170l-28 56-27 57-46 42-45 42-56 25-55 25h-143l-52-20c-29-11-74-36-101-56l-49-36-34-50c-19-27-36-50-39-50s-20 23-38 50l-32 50-48 35c-55 40-128 70-192 78l-45 5-42-8zm-668 435-25-24v-69l35-31 36-31h29c42 0 59 9 76 41l14 29-14 35-15 35-33 20c-18 11-43 20-56 20h-23l-24-25zm-173-464-24-6 32-23c36-27 35-27 44 11l6 27-17-1c-10-1-28-4-41-8zm2434-703c-3-13-6-25-6-28s19-4 42-2l42 5-29 23c-37 30-41 30-49 2zm-222-335c-12-2-29-12-39-23l-16-18-1-30-1-31 16-24 16-24 36-17 37-18 29 13c35 14 49 36 49 77v30l-17 21c-10 11-34 27-53 34l-35 13-21-3zM708 584l-28-15-15-29c-8-16-15-42-15-58v-29l23-21 23-22h56l28 20 29 20 11 36 12 35-12 28-11 28-25 12c-32 14-43 14-76-5zm422-305 1-44 24 28c26 29 32 47 16 47-5 0-16 3-25 6l-16 6v-43z"/></g></g></svg>