<?xml version="1.0"?><svg version="1.2" baseProfile="tiny-ps" viewBox="0 0 300 300" xmlns="http://www.w3.org/2000/svg" xmlns:xlink="http://www.w3.org/1999/xlink"><title>Caroline Jóias</title><g><g fill="#e2d2ca" transform="matrix(.1 0 0 -.1 0 300)"><path d="M1320 2990c-188-26-341-74-511-161l-115-60-87-65c-111-84-227-199-311-311l-66-88-65-127-64-126-30-99c-17-54-38-138-48-188l-18-90 1-180 1-180 22-105c12-58 36-145 52-195l30-90 60-115 60-116 65-87c84-111 200-227 311-311l87-65 116-60 115-60 90-30c50-16 137-39 195-51l105-21 121-6 121-6 99 12c333 41 622 171 854 385 240 222 392 492 461 816l22 105 1 175v175l-18 95c-37 202-119 403-237 581l-63 94-101 104-100 103-85 64-85 63-115 60c-133 68-253 111-395 141l-100 21-155 4-155 4-65-9z"/></g><g fill="#c8b0ab" transform="matrix(.1 0 0 -.1 0 300)"><path d="M1320 2990c-188-26-341-74-511-161l-115-60-87-65c-111-84-227-199-311-311l-66-88-65-127-64-126-30-99c-17-54-38-138-48-188l-18-90 1-180 1-180 22-105c12-58 36-145 52-195l30-90 60-115 60-116 65-87c84-111 200-227 311-311l87-65 116-60 115-60 90-30c50-16 137-39 195-51l105-21 121-6 121-6 99 12c333 41 622 171 854 385 240 222 392 492 461 816l22 105 1 175v175l-18 95c-37 202-119 403-237 581l-63 94-101 104-100 103-85 64-85 63-115 60c-133 68-253 111-395 141l-100 21-155 4-155 4-65-9zm323-446c145-33 272-108 387-231 152-161 247-365 285-613l15-95v-230l-15-90c-8-49-24-124-35-165l-21-75-53-110-54-110-46-62c-26-34-83-95-127-137l-81-76-91-45-92-45-70-15-70-15h-140l-69 15-69 15-63 29c-173 81-325 235-421 426-42 82-87 213-109 315l-19 85v360l19 85c89 409 334 703 651 781l70 18h73l73 1 72-16zm-215-35c-356-40-645-366-723-813l-15-89v-223l16-95c67-400 314-707 639-794l60-16h210l67 19c36 11 103 39 147 62l81 42 71 66c39 36 94 96 121 132l50 65 49 100 48 100 25 86c32 113 46 216 46 347v107l-15 95-16 94-29 88c-140 416-474 669-832 627zm527-468 30-17 12-38 13-37-11-47c-27-121-142-244-308-327l-71-36-77-19-76-20h-213l-41-82c-22-46-51-114-63-153l-22-70-5-90-5-90 24-44 23-45 35-18 35-19 72 4 72 4 68 33 67 33 71 71 70 71 33 65c36 71 48 125 38 165l-7 26-24 11-24 11-41-22c-23-12-39-17-36-12 9 14 72 41 95 41h21l21-21 22-22-6-57-5-58-27-53c-14-30-45-78-67-107l-41-53-66-49-66-50-55-22-55-21-75-1-75-1-47 22-47 21-28 43-28 42-3 93-4 92 21 75c11 42 39 115 61 163s38 90 35 93-27 17-52 31l-46 25-31 38-30 37-4 58-4 59 20 40c12 22 35 52 52 67l32 26h47l9-16 9-15 12 15 13 16h46l12-15 12-15-6-25-7-26-54-59c-30-33-55-56-55-52s18 25 40 47c21 21 46 53 55 71l15 32-6 16-6 16h-45l-19-21-18-20-8 20-7 21h-39l-36-41c-56-61-70-120-45-186 19-52 107-123 152-123h13l60 87 59 87 90 94 89 94 61 43c82 58 159 96 225 111l55 13 45-5 45-6 30-17zm-140 2c-150-33-338-200-499-441l-47-72 7-11 7-12 111 6 111 5 70 22c39 12 101 38 138 58l68 35 73 68 72 67 28 51 27 51 6 54 5 53-12 22-12 23-33 14-34 14-33-1c-18-1-42-3-53-6z"/></g><g fill="#ac8b89" transform="matrix(.1 0 0 -.1 0 300)"><path d="M1320 2990c-188-26-341-74-511-161l-115-60-87-65c-111-84-227-199-311-311l-66-88-65-127-64-126-30-99c-17-54-38-138-48-188l-18-90 1-180 1-180 22-105c12-58 36-145 52-195l30-90 60-115 60-116 65-87c84-111 200-227 311-311l87-65 116-60 115-60 90-30c50-16 137-39 195-51l105-21 121-6 121-6 99 12c333 41 622 171 854 385 240 222 392 492 461 816l22 105 1 175v175l-18 95c-37 202-119 403-237 581l-63 94-101 104-100 103-85 64-85 63-115 60c-133 68-253 111-395 141l-100 21-155 4-155 4-65-9zm395-464 80-27 75-47 74-46 76-77 75-76 54-88 55-87 33-84c19-47 46-128 61-182l26-97v-440l-26-95c-55-201-126-345-236-475l-57-69-70-53c-38-30-101-69-140-88l-70-33-72-17-73-18-107 6-108 5-74 26-74 26-74 46-74 46-69 68-69 69-56 84c-92 143-149 289-179 466l-16 95v263l15 89c38 221 117 400 247 561l51 63 70 56c85 67 185 119 281 145l71 19 110-3 110-4 80-27zm-340-26c-74-16-175-59-248-106l-72-47-61-62c-142-145-245-353-285-575l-14-75 1-150v-150l18-83c44-205 131-384 257-525 92-105 249-201 379-231l65-16h180l65 15 65 16 81 40 81 39 66 56 67 55 59 74c32 40 77 107 100 147l40 74 36 106 35 106 15 99 15 98v180l-14 95c-26 172-82 320-173 459l-55 85-62 62-62 62-77 50-77 50-77 27-78 27-115 3-115 4-40-9zm550-444 40-12 23-34 24-35-6-44c-3-24-17-68-30-98l-25-53-53-56c-94-100-230-178-366-211l-67-16-105-1-105-2-32-59c-18-33-46-102-63-153l-31-94-5-81-6-82 24-44 23-45 28-20 29-21h144l77 38 77 38 64 65 65 64 36 73c19 39 38 89 42 109l6 38-17 25-16 25h-55l-34-21c-18-11-35-18-38-15-2 2 15 16 40 30l44 26h60l18-20 18-20-5-64-5-64-34-63-34-64-70-71-70-71-76-37-76-38-60-5-61-6-51 13-52 12-30 25c-16 14-40 44-52 67l-21 41v85l1 85 17 65c10 36 37 107 62 159 24 52 43 95 42 96-2 2-21 12-44 23l-40 21-37 40-36 40-11 41-11 40 7 35 6 35 29 43 29 44 34 18 35 19 21-19 20-19 12 12 12 12h54l6-16c3-9 6-24 6-35v-20l-60-64-60-64-1-18-1-18-4 12c-7 17 10 45 62 104l45 51-3 26-3 27-17 3-18 3-24-26-24-26-4 23-3 23-18 3-18 4-39-41-39-41-12-39-12-39 7-34c3-18 15-47 26-65l19-32 38-25c21-14 49-27 63-31l25-6 30 48c45 72 142 191 208 256 179 176 358 254 492 213zm-111-16c-61-12-132-51-215-118l-74-58-71-85c-40-46-97-122-128-168l-57-85 17-9 17-10 96 6 96 7 56 15c80 21 144 51 221 102l67 44 46 51c55 61 92 130 101 187l7 41-12 28c-14 34-36 48-86 55l-40 5-41-8z"/></g><g fill="#8d6162" transform="matrix(.1 0 0 -.1 0 300)"><path d="M1320 2990c-188-26-341-74-511-161l-115-60-87-65c-111-84-227-199-311-311l-66-88-65-127-64-126-30-99c-17-54-38-138-48-188l-18-90 1-180 1-180 22-105c12-58 36-145 52-195l30-90 60-115 60-116 65-87c84-111 200-227 311-311l87-65 116-60 115-60 90-30c50-16 137-39 195-51l105-21 121-6 121-6 99 12c333 41 622 171 854 385 240 222 392 492 461 816l22 105 1 175v175l-18 95c-37 202-119 403-237 581l-63 94-101 104-100 103-85 64-85 63-115 60c-133 68-253 111-395 141l-100 21-155 4-155 4-65-9zm352-449c318-81 571-400 644-811l17-95v-280l-17-95c-74-413-328-731-651-815l-60-16h-200l-60 16c-325 85-571 394-651 820l-17 90 1 145v145l20 101c26 131 63 238 120 348l47 88 65 81 65 81 65 53 65 53 80 40 80 39 60 15 60 14 96 1 96 1 75-19zm-312-47-65-13-92-46-92-45-87-82-86-82-48-71c-87-129-145-271-176-432l-17-88v-290l20-95c55-256 179-472 353-611l65-52 80-39 80-38 70-15 70-15h140l70 15 70 15 90 44 90 45 63 53c35 29 90 87 123 128l60 75 54 110 54 110 26 95 25 95 12 112 12 113-13 119-12 119-25 93-24 92-39 81c-71 153-157 266-271 357l-65 52-80 39-80 38-70 15-70 15-75-1-75-1-65-14zm573-438c18-7 41-23 52-36l20-22v-57l-1-57-27-56-28-57-56-56-55-57-69-44c-81-53-176-90-279-111l-75-14-79 3-80 3-37-75c-47-92-75-178-89-267l-11-68 6-46 6-46 19-31 19-31 33-18 33-17h131l68 32 69 32 77 78 77 77 32 68 33 68 1 43 2 43-14 17-13 16h-53l-38-25-37-26v10c0 6 17 22 37 36l38 25h35c44 0 56-8 70-45l11-29-11-49c-5-26-22-74-38-105l-27-57-80-81-80-81-68-33-68-33-72-5-72-4-43 11-43 12-40 36-39 35-16 56-17 56 7 74 6 74 30 89c16 48 43 115 59 147l29 58-55 29-56 29-28 39-28 39-7 44-6 45 17 45 17 45 32 34 32 34 28 7 29 7 9-17 9-16 30 15 29 16 20-11 20-11v-54l-25-38c-14-20-30-37-36-37-5 0-23-21-39-47l-30-47v41l55 62 55 62v50l-16 6-15 6-29-28-28-27-4 23-3 24-17 3-17 3-39-40-38-40-13-41-12-42 6-31c4-18 17-48 30-68l23-35 57-30 58-29 4 13c10 28 127 182 192 253 114 125 273 233 377 258 21 5 61 9 87 10l48 1 32-14zm-175-35c-26-11-76-39-111-64l-63-45-91-95-91-95-65-99-66-98 27-8 27-8 76 6c158 11 285 59 408 151l64 48 44 59 43 59 16 54 16 54-7 30-7 30-25 20-26 20h-61l-61-1-47-18z"/></g><g fill="#6e383c" transform="matrix(.1 0 0 -.1 0 300)"><path d="M1320 2990c-188-26-341-74-511-161l-115-60-87-65c-111-84-227-199-311-311l-66-88-65-127-64-126-30-99c-17-54-38-138-48-188l-18-90 1-180 1-180 22-105c12-58 36-145 52-195l30-90 60-115 60-116 65-87c84-111 200-227 311-311l87-65 116-60 115-60 90-30c50-16 137-39 195-51l105-21 121-6 121-6 99 12c333 41 622 171 854 385 240 222 392 492 461 816l22 105 1 175v175l-18 95c-37 202-119 403-237 581l-63 94-101 104-100 103-85 64-85 63-115 60c-133 68-253 111-395 141l-100 21-155 4-155 4-65-9zm355-446c71-19 181-72 246-120 67-49 174-166 227-248 94-145 159-336 183-537l12-104-6-107-6-107-21-103-21-103-40-100-39-100-51-84-52-85-75-78-75-79-70-46-69-46-72-28-71-28-86-12-86-12-84 12-84 13-74 29c-41 16-105 50-141 74l-67 45-72 76c-147 154-244 354-288 588l-16 91-1 150v150l18 89c73 371 263 644 538 770 64 30 116 45 208 60 42 7 171-4 235-20zm-282-44c-179-33-357-150-483-320l-50-67-50-106-51-105-26-99-27-98v-205l-1-205 22-86c29-114 75-227 131-324l47-80 95-95 95-95 65-38c36-21 101-49 145-64l80-27h240l80 27c44 15 109 43 145 64l64 38 79 75 79 75 59 88 58 89 31 76c18 41 43 118 56 170l24 94 10 106 10 107-10 106-10 107-24 95c-32 125-82 239-150 341l-55 82-74 71-75 71-68 40-69 41-78 26-77 26-93 4-92 4-52-9zm553-446 35-17 16-30 15-31-5-51-5-52-27-54-27-53-58-57c-102-103-234-173-383-205l-72-15-90 2-90 2-42-89c-23-49-51-123-63-165l-20-75v-156l16-35 17-34 24-16c13-9 43-19 66-24l42-7 48 9c26 5 73 21 105 36l57 28 71 70 71 70 36 74 37 74v86l-16 15c-21 22-42 20-89-9-51-31-65-32-35 0l23 24 43 17 42 16 28-14 28-13 10-33 9-33-12-53-12-53-37-63-37-63-63-62-62-63-73-38-72-39h-211l-43 28-43 28-24 52-24 52v142l20 79 20 79 40 83c22 46 40 87 40 91s-15 14-33 23-48 28-66 44l-34 28-18 41-19 40v79l21 42 20 43 35 31 35 30h50l5-14 5-14 30 16 29 17 17-11 18-11 3-35 3-36-54-58c-29-33-59-68-65-79l-11-20-1 23v23l44 47c65 70 83 113 51 126l-14 5-31-25-30-26v15c0 8-6 20-14 26l-14 12-37-32c-20-18-43-45-51-60l-14-28v-92l14-27c20-39 65-78 108-97l38-15 26 42c136 217 366 423 527 473l42 14h63l64 1 34-16zm-169-28c-103-38-238-147-346-280-61-75-137-185-148-212l-6-17 119 5 119 5 84 28 84 29 71 46 71 47 56 60 56 60 21 47 22 46v107l-21 19-20 18-62 3-62 3-38-14z"/></g><g fill="#55171e" transform="matrix(.1 0 0 -.1 0 300)"><path d="M1320 2990c-188-26-341-74-511-161l-115-60-87-65c-111-84-227-199-311-311l-66-88-65-127-64-126-30-99c-17-54-38-138-48-188l-18-90 1-180 1-180 22-105c12-58 36-145 52-195l30-90 60-115 60-116 65-87c84-111 200-227 311-311l87-65 116-60 115-60 90-30c50-16 137-39 195-51l105-21 121-6 121-6 99 12c333 41 622 171 854 385 240 222 392 492 461 816l22 105 1 175v175l-18 95c-37 202-119 403-237 581l-63 94-101 104-100 103-85 64-85 63-115 60c-133 68-253 111-395 141l-100 21-155 4-155 4-65-9zm318-436 77-15 82-40 81-39 64-50c180-144 308-361 369-630l20-85 6-140 6-140-12-88c-7-49-23-132-37-185l-25-97-53-110-53-110-62-83-63-83-70-59-71-59-76-39c-42-22-103-48-136-58l-60-18h-240l-60 18c-88 27-181 77-262 140l-72 56-63 80-64 79-47 89-46 88-35 104-35 105-15 106-16 107v194l16 107 15 106 34 102c59 177 144 320 257 433l63 64 73 47c115 75 244 117 370 118l63 1 77-16zm-216-55c-82-10-150-33-233-76l-67-34-69-59-69-58-56-73c-73-96-129-202-167-314l-30-91-16-94-15-95v-220l15-95 16-94 30-91c38-114 96-223 168-316l56-73 70-59 70-59 90-43c50-24 115-49 145-56l55-13h180l55 13c30 7 88 29 128 47 270 123 456 393 518 748l16 91-5 155-5 155-26 98c-60 231-171 416-324 543l-67 55-80 40-80 39-60 14c-33 8-87 16-120 19l-60 5-63-9zm528-444c16-8 36-25 44-37l16-22v-107l-26-55-26-55-55-59-55-60-66-44c-79-52-167-90-254-111l-63-15h-206l-44-92-45-93-20-79-20-79v-132l18-35 17-35 34-22 34-23h122l58 24 58 24 55 42 55 43 49 66 50 66 20 53c11 29 20 67 20 84v31l-17 19c-21 24-29 23-87-8l-48-25-6 6-7 6 25 20c32 26 84 49 110 49h21l24-25 25-24v-81l-19-54c-10-30-37-81-59-114l-41-60-57-50c-31-28-82-64-113-80l-56-30-64-12-64-11-41 6c-91 16-146 52-177 120l-19 40v162l20 77 19 77 41 86 40 87-12 8c-7 4-18 8-24 8s-33 19-59 42l-48 42-13 33-14 32v92l19 37c11 21 34 52 52 70l33 32h52l12-12 12-12 12 12 12 12h56l10-25 10-25-11-27c-5-16-30-48-53-73-24-25-51-58-59-75l-16-30-1 30v30l46 50c25 28 50 61 55 74l10 24-10 10-10 10-26-11c-14-6-25-16-25-22 0-5-7-10-15-10h-15v40h-36l-26-27c-14-16-33-42-42-60l-16-32v-35c0-44 15-84 43-114 24-26 88-62 110-62h14l10 23c21 44 135 187 207 260 108 110 212 182 311 218l50 18 73 1h73l29-15zm-146-24c-89-22-227-120-326-233-61-69-161-206-185-252l-15-29 113 6 114 5 80 26 80 25 65 38 64 38 66 65 66 65 27 54 27 55v44c0 24-4 52-10 62l-10 18-31 11c-35 12-78 13-125 2z"/></g></g></svg>